<svg xmlns="http://www.w3.org/2000/svg" width="980" height="470" viewBox="0 0 980 470" role="img" aria-labelledby="title desc"><title>Model comparison</title><desc>Model comparison</desc><rect x="0" y="0" width="980" height="470" fill="#0f172a"/><text x="40" y="42" fill="#e5e7eb" font-size="24" font-family="Arial, sans-serif" font-weight="bold">Option 1 vs Option 2</text><text x="40" y="70" fill="#94a3b8" font-size="14" font-family="Arial, sans-serif">Each row shows the pairwise offline comparison. Longer bars indicate better performance after row-wise normalization.</text><rect x="700" y="24" width="14" height="14" fill="#38bdf8" rx="3"/><text x="722" y="36" fill="#e5e7eb" font-size="13" font-family="Arial, sans-serif">Option 1</text><rect x="810" y="24" width="14" height="14" fill="#f97316" rx="3"/><text x="832" y="36" fill="#e5e7eb" font-size="13" font-family="Arial, sans-serif">Option 2</text><text x="40" y="115" fill="#e5e7eb" font-size="15" font-family="Arial, sans-serif" font-weight="bold">MAE</text><rect x="210" y="97" width="330" height="14" fill="#111827" rx="7"/><rect x="210" y="97" width="330.0" height="14" fill="#38bdf8" rx="7"/><text x="555" y="109" fill="#e5e7eb" font-size="13" font-family="Arial, sans-serif">0.6625</text><rect x="210" y="119" width="330" height="14" fill="#111827" rx="7"/><rect x="210" y="119" width="324.3" height="14" fill="#f97316" rx="7"/><text x="555" y="131" fill="#e5e7eb" font-size="13" font-family="Arial, sans-serif">0.6742</text><text x="650" y="119" fill="#94a3b8" font-size="13" font-family="Arial, sans-serif">Winner: Option 1</text><text x="40" y="181" fill="#e5e7eb" font-size="15" font-family="Arial, sans-serif" font-weight="bold">RMSE</text><rect x="210" y="163" width="330" height="14" fill="#111827" rx="7"/><rect x="210" y="163" width="330.0" height="14" fill="#38bdf8" rx="7"/><text x="555" y="175" fill="#e5e7eb" font-size="13" font-family="Arial, sans-serif">0.8668</text><rect x="210" y="185" width="330" height="14" fill="#111827" rx="7"/><rect x="210" y="185" width="317.0" height="14" fill="#f97316" rx="7"/><text x="555" y="197" fill="#e5e7eb" font-size="13" font-family="Arial, sans-serif">0.9025</text><text x="650" y="185" fill="#94a3b8" font-size="13" font-family="Arial, sans-serif">Winner: Option 1</text><text x="40" y="247" fill="#e5e7eb" font-size="15" font-family="Arial, sans-serif" font-weight="bold">Precision@10</text><rect x="210" y="229" width="330" height="14" fill="#111827" rx="7"/><rect x="210" y="229" width="330.0" height="14" fill="#38bdf8" rx="7"/><text x="555" y="241" fill="#e5e7eb" font-size="13" font-family="Arial, sans-serif">0.0387</text><rect x="210" y="251" width="330" height="14" fill="#111827" rx="7"/><rect x="210" y="251" width="219.5" height="14" fill="#f97316" rx="7"/><text x="555" y="263" fill="#e5e7eb" font-size="13" font-family="Arial, sans-serif">0.0257</text><text x="650" y="251" fill="#94a3b8" font-size="13" font-family="Arial, sans-serif">Winner: Option 1</text><text x="40" y="313" fill="#e5e7eb" font-size="15" font-family="Arial, sans-serif" font-weight="bold">Recall@10</text><rect x="210" y="295" width="330" height="14" fill="#111827" rx="7"/><rect x="210" y="295" width="330.0" height="14" fill="#38bdf8" rx="7"/><text x="555" y="307" fill="#e5e7eb" font-size="13" font-family="Arial, sans-serif">0.0144</text><rect x="210" y="317" width="330" height="14" fill="#111827" rx="7"/><rect x="210" y="317" width="221.0" height="14" fill="#f97316" rx="7"/><text x="555" y="329" fill="#e5e7eb" font-size="13" font-family="Arial, sans-serif">0.0097</text><text x="650" y="317" fill="#94a3b8" font-size="13" font-family="Arial, sans-serif">Winner: Option 1</text><text x="40" y="379" fill="#e5e7eb" font-size="15" font-family="Arial, sans-serif" font-weight="bold">NDCG@10</text><rect x="210" y="361" width="330" height="14" fill="#111827" rx="7"/><rect x="210" y="361" width="330.0" height="14" fill="#38bdf8" rx="7"/><text x="555" y="373" fill="#e5e7eb" font-size="13" font-family="Arial, sans-serif">0.0443</text><rect x="210" y="383" width="330" height="14" fill="#111827" rx="7"/><rect x="210" y="383" width="233.1" height="14" fill="#f97316" rx="7"/><text x="555" y="395" fill="#e5e7eb" font-size="13" font-family="Arial, sans-serif">0.0313</text><text x="650" y="383" fill="#94a3b8" font-size="13" font-family="Arial, sans-serif">Winner: Option 1</text></svg>