<svg xmlns="http://www.w3.org/2000/svg" width="920" height="430" viewBox="0 0 920 430" role="img" aria-labelledby="title desc"><title>Rating distribution</title><desc>Rating distribution</desc><rect x="0" y="0" width="920" height="430" fill="#0f172a"/><text x="40" y="42" fill="#e5e7eb" font-size="24" font-family="Arial, sans-serif" font-weight="bold">Rating Distribution</text><text x="40" y="70" fill="#94a3b8" font-size="14" font-family="Arial, sans-serif">MovieLens ratings are left-skewed and concentrated at 3.5 to 5.0.</text><line x1="80" y1="360" x2="840" y2="360" stroke="#334155" stroke-width="1"/><line x1="80" y1="110" x2="80" y2="360" stroke="#334155" stroke-width="1"/><line x1="80" y1="360.0" x2="840" y2="360.0" stroke="#334155" stroke-width="1" opacity="0.5"/><text x="68" y="365.0" text-anchor="end" fill="#94a3b8" font-size="12" font-family="Arial, sans-serif">0</text><line x1="80" y1="297.5" x2="840" y2="297.5" stroke="#334155" stroke-width="1" opacity="0.5"/><text x="68" y="302.5" text-anchor="end" fill="#94a3b8" font-size="12" font-family="Arial, sans-serif">6704</text><line x1="80" y1="235.0" x2="840" y2="235.0" stroke="#334155" stroke-width="1" opacity="0.5"/><text x="68" y="240.0" text-anchor="end" fill="#94a3b8" font-size="12" font-family="Arial, sans-serif">13409</text><line x1="80" y1="172.5" x2="840" y2="172.5" stroke="#334155" stroke-width="1" opacity="0.5"/><text x="68" y="177.5" text-anchor="end" fill="#94a3b8" font-size="12" font-family="Arial, sans-serif">20113</text><line x1="80" y1="110.0" x2="840" y2="110.0" stroke="#334155" stroke-width="1" opacity="0.5"/><text x="68" y="115.0" text-anchor="end" fill="#94a3b8" font-size="12" font-family="Arial, sans-serif">26818</text><rect x="89.5" y="347.2" width="57.0" height="12.8" fill="#38bdf8" rx="4"/><text x="118.0" y="380" text-anchor="middle" fill="#94a3b8" font-size="12" font-family="Arial, sans-serif">0.5</text><rect x="165.5" y="333.8" width="57.0" height="26.2" fill="#38bdf8" rx="4"/><text x="194.0" y="380" text-anchor="middle" fill="#94a3b8" font-size="12" font-family="Arial, sans-serif">1.0</text><rect x="241.5" y="343.3" width="57.0" height="16.7" fill="#38bdf8" rx="4"/><text x="270.0" y="380" text-anchor="middle" fill="#94a3b8" font-size="12" font-family="Arial, sans-serif">1.5</text><rect x="317.5" y="289.6" width="57.0" height="70.4" fill="#38bdf8" rx="4"/><text x="346.0" y="380" text-anchor="middle" fill="#94a3b8" font-size="12" font-family="Arial, sans-serif">2.0</text><rect x="393.5" y="308.3" width="57.0" height="51.7" fill="#38bdf8" rx="4"/><text x="422.0" y="380" text-anchor="middle" fill="#94a3b8" font-size="12" font-family="Arial, sans-serif">2.5</text><rect x="469.5" y="173.1" width="57.0" height="186.9" fill="#38bdf8" rx="4"/><text x="498.0" y="380" text-anchor="middle" fill="#94a3b8" font-size="12" font-family="Arial, sans-serif">3.0</text><rect x="545.5" y="237.5" width="57.0" height="122.5" fill="#38bdf8" rx="4"/><text x="574.0" y="380" text-anchor="middle" fill="#94a3b8" font-size="12" font-family="Arial, sans-serif">3.5</text><rect x="621.5" y="110.0" width="57.0" height="250.0" fill="#38bdf8" rx="4"/><text x="650.0" y="380" text-anchor="middle" fill="#94a3b8" font-size="12" font-family="Arial, sans-serif">4.0</text><rect x="697.5" y="280.3" width="57.0" height="79.7" fill="#38bdf8" rx="4"/><text x="726.0" y="380" text-anchor="middle" fill="#94a3b8" font-size="12" font-family="Arial, sans-serif">4.5</text><rect x="773.5" y="236.8" width="57.0" height="123.2" fill="#38bdf8" rx="4"/><text x="802.0" y="380" text-anchor="middle" fill="#94a3b8" font-size="12" font-family="Arial, sans-serif">5.0</text><text x="460.0" y="410" text-anchor="middle" fill="#94a3b8" font-size="13" font-family="Arial, sans-serif">Rating bucket</text></svg>