<svg xmlns="http://www.w3.org/2000/svg" width="980" height="420" viewBox="0 0 980 420" role="img" aria-labelledby="title desc"><title>Synthetic data fidelity</title><desc>Synthetic data fidelity</desc><rect x="0" y="0" width="980" height="420" fill="#0f172a"/><text x="40" y="42" fill="#e5e7eb" font-size="24" font-family="Arial, sans-serif" font-weight="bold">Synthetic Data Fidelity</text><text x="40" y="70" fill="#94a3b8" font-size="14" font-family="Arial, sans-serif">Lower bars indicate that the synthetic data stays closer to the real training distribution.</text><text x="40" y="125" fill="#e5e7eb" font-size="15" font-family="Arial, sans-serif" font-weight="bold">Mean rating delta</text><rect x="290" y="107" width="300" height="14" fill="#111827" rx="7"/><rect x="290" y="107" width="300.0" height="14" fill="#38bdf8" rx="7"/><text x="605" y="119" fill="#e5e7eb" font-size="13" font-family="Arial, sans-serif">0.0239</text><rect x="290" y="131" width="300" height="14" fill="#111827" rx="7"/><rect x="290" y="131" width="225.5" height="14" fill="#f97316" rx="7"/><text x="605" y="143" fill="#e5e7eb" font-size="13" font-family="Arial, sans-serif">0.0180</text><text x="40" y="213" fill="#e5e7eb" font-size="15" font-family="Arial, sans-serif" font-weight="bold">Rating std delta</text><rect x="290" y="195" width="300" height="14" fill="#111827" rx="7"/><rect x="290" y="195" width="194.4" height="14" fill="#38bdf8" rx="7"/><text x="605" y="207" fill="#e5e7eb" font-size="13" font-family="Arial, sans-serif">0.0838</text><rect x="290" y="219" width="300" height="14" fill="#111827" rx="7"/><rect x="290" y="219" width="300.0" height="14" fill="#f97316" rx="7"/><text x="605" y="231" fill="#e5e7eb" font-size="13" font-family="Arial, sans-serif">0.1293</text><text x="40" y="301" fill="#e5e7eb" font-size="15" font-family="Arial, sans-serif" font-weight="bold">Popularity Gini delta</text><rect x="290" y="283" width="300" height="14" fill="#111827" rx="7"/><rect x="290" y="283" width="161.1" height="14" fill="#38bdf8" rx="7"/><text x="605" y="295" fill="#e5e7eb" font-size="13" font-family="Arial, sans-serif">0.0464</text><rect x="290" y="307" width="300" height="14" fill="#111827" rx="7"/><rect x="290" y="307" width="300.0" height="14" fill="#f97316" rx="7"/><text x="605" y="319" fill="#e5e7eb" font-size="13" font-family="Arial, sans-serif">0.0864</text><rect x="730" y="24" width="14" height="14" fill="#38bdf8" rx="3"/><text x="752" y="36" fill="#e5e7eb" font-size="13" font-family="Arial, sans-serif">Option 1</text><rect x="840" y="24" width="14" height="14" fill="#f97316" rx="3"/><text x="862" y="36" fill="#e5e7eb" font-size="13" font-family="Arial, sans-serif">Option 2</text></svg>