<svg xmlns="http://www.w3.org/2000/svg" width="980" height="430" viewBox="0 0 980 430" role="img" aria-labelledby="title desc"><title>Validation RMSE by epoch</title><desc>Validation RMSE by epoch</desc><rect x="0" y="0" width="980" height="430" fill="#0f172a"/><text x="40" y="42" fill="#e5e7eb" font-size="24" font-family="Arial, sans-serif" font-weight="bold">Validation RMSE by Epoch</text><text x="40" y="70" fill="#94a3b8" font-size="14" font-family="Arial, sans-serif">Option 1 improves more steadily, while Option 2 reaches its best validation loss early and then plateaus.</text><line x1="80" y1="340" x2="900" y2="340" stroke="#334155" stroke-width="1"/><line x1="80" y1="90" x2="80" y2="340" stroke="#334155" stroke-width="1"/><rect x="680" y="24" width="14" height="14" fill="#38bdf8" rx="3"/><text x="702" y="36" fill="#e5e7eb" font-size="13" font-family="Arial, sans-serif">Option 1</text><rect x="800" y="24" width="14" height="14" fill="#f97316" rx="3"/><text x="822" y="36" fill="#e5e7eb" font-size="13" font-family="Arial, sans-serif">Option 2</text><line x1="80" y1="90.0" x2="900" y2="90.0" stroke="#334155" stroke-width="1" opacity="0.5"/><text x="70" y="94.0" text-anchor="end" fill="#94a3b8" font-size="12" font-family="Arial, sans-serif">0.962</text><line x1="80" y1="140.0" x2="900" y2="140.0" stroke="#334155" stroke-width="1" opacity="0.5"/><text x="70" y="144.0" text-anchor="end" fill="#94a3b8" font-size="12" font-family="Arial, sans-serif">0.938</text><line x1="80" y1="190.0" x2="900" y2="190.0" stroke="#334155" stroke-width="1" opacity="0.5"/><text x="70" y="194.0" text-anchor="end" fill="#94a3b8" font-size="12" font-family="Arial, sans-serif">0.914</text><line x1="80" y1="240.0" x2="900" y2="240.0" stroke="#334155" stroke-width="1" opacity="0.5"/><text x="70" y="244.0" text-anchor="end" fill="#94a3b8" font-size="12" font-family="Arial, sans-serif">0.890</text><line x1="80" y1="290.0" x2="900" y2="290.0" stroke="#334155" stroke-width="1" opacity="0.5"/><text x="70" y="294.0" text-anchor="end" fill="#94a3b8" font-size="12" font-family="Arial, sans-serif">0.866</text><line x1="80" y1="340.0" x2="900" y2="340.0" stroke="#334155" stroke-width="1" opacity="0.5"/><text x="70" y="344.0" text-anchor="end" fill="#94a3b8" font-size="12" font-family="Arial, sans-serif">0.841</text><line x1="80.0" y1="90" x2="80.0" y2="340" stroke="#334155" stroke-width="1" opacity="0.25"/><text x="80.0" y="358" text-anchor="middle" fill="#94a3b8" font-size="12" font-family="Arial, sans-serif">1</text><line x1="221.4" y1="90" x2="221.4" y2="340" stroke="#334155" stroke-width="1" opacity="0.25"/><text x="221.4" y="358" text-anchor="middle" fill="#94a3b8" font-size="12" font-family="Arial, sans-serif">6</text><line x1="362.8" y1="90" x2="362.8" y2="340" stroke="#334155" stroke-width="1" opacity="0.25"/><text x="362.8" y="358" text-anchor="middle" fill="#94a3b8" font-size="12" font-family="Arial, sans-serif">11</text><line x1="504.1" y1="90" x2="504.1" y2="340" stroke="#334155" stroke-width="1" opacity="0.25"/><text x="504.1" y="358" text-anchor="middle" fill="#94a3b8" font-size="12" font-family="Arial, sans-serif">16</text><line x1="645.5" y1="90" x2="645.5" y2="340" stroke="#334155" stroke-width="1" opacity="0.25"/><text x="645.5" y="358" text-anchor="middle" fill="#94a3b8" font-size="12" font-family="Arial, sans-serif">21</text><line x1="786.9" y1="90" x2="786.9" y2="340" stroke="#334155" stroke-width="1" opacity="0.25"/><text x="786.9" y="358" text-anchor="middle" fill="#94a3b8" font-size="12" font-family="Arial, sans-serif">26</text><polyline fill="none" stroke="#38bdf8" stroke-width="3" points="80.0,211.6 108.3,250.0 136.6,269.0 164.8,278.3 193.1,285.5 221.4,290.1 249.7,295.4 277.9,298.9 306.2,301.8 334.5,303.5 362.8,304.8 391.0,306.2 419.3,308.5 447.6,310.9 475.9,311.3 504.1,311.5 532.4,313.7 560.7,314.4 589.0,315.4 617.2,316.8 645.5,317.9 673.8,317.9 702.1,318.3 730.3,317.9 758.6,318.7 786.9,319.1 815.2,319.0 843.4,319.2 871.7,319.1 900.0,318.5"/><polyline fill="none" stroke="#f97316" stroke-width="3" points="80.0,110.8 108.3,132.8 136.6,206.6 164.8,223.1 193.1,226.7 221.4,223.2 249.7,225.8 277.9,232.9 306.2,230.2 334.5,236.2 362.8,235.8 391.0,234.5 419.3,233.9 447.6,232.2 475.9,231.9 504.1,230.2 532.4,229.1 560.7,229.5 589.0,229.3 617.2,229.3 645.5,229.0 673.8,229.1 702.1,229.2 730.3,229.4 758.6,229.1 786.9,228.9 815.2,228.7 843.4,228.7 871.7,228.8 900.0,228.8"/></svg>